<?xml version="1.0" encoding="UTF-8"?>
<svg width="20px" height="24px" viewBox="0 0 20 24" version="1.1" xmlns="http://www.w3.org/2000/svg">
  <g stroke="none" stroke-width="1" fill="none" fill-rule="evenodd">
    <path
      fill="#FFFFFF"
      d="M17,14 L17,22.5 C17,23.3284271 17.6715729,24 18.5,24 L18.5,24 C19.3284271,24 20,23.3284271 20,22.5 L20,22.5 L20,1.5 C20,0.671572875 19.3284271,-1.52179594e-16 18.5,0 C17.6715729,1.52179594e-16 17,0.671572875 17,1.5 L17,1.5 L17,11 L13,11 L13,5.5 C13,4.67157288 12.3284271,4 11.5,4 C10.6715729,4 10,4.67157288 10,5.5 L10,11 L3,11 L3,9.5 C3,8.67157288 2.32842712,8 1.5,8 L1.5,8 L1.5,8 C0.671572875,8 -1.01453063e-16,8.67157288 0,9.5 L-1.55431223e-15,14.5 C-1.08496362e-15,15.3284271 0.671572875,16 1.5,16 C2.32842712,16 3,15.3284271 3,14.5 L3,14.5 L3,14 L10,14 L10,18.5 C10,19.3284271 10.6715729,20 11.5,20 C12.3284271,20 13,19.3284271 13,18.5 L13,18.5 L13,14 L17,14 Z"
    ></path>
  </g>
</svg>
